<?xml version="1.0" encoding="UTF-8" standalone="no"?>
<!-- Created with Inkscape (http://www.inkscape.org/) -->

<svg
   xmlns:dc="http://purl.org/dc/elements/1.1/"
   xmlns:cc="http://creativecommons.org/ns#"
   xmlns:rdf="http://www.w3.org/1999/02/22-rdf-syntax-ns#"
   xmlns:svg="http://www.w3.org/2000/svg"
   xmlns="http://www.w3.org/2000/svg"
   xmlns:sodipodi="http://sodipodi.sourceforge.net/DTD/sodipodi-0.dtd"
   xmlns:inkscape="http://www.inkscape.org/namespaces/inkscape"
   width="256px"
   height="256px"
   viewBox="0 0 256 256"
   version="1.1"
   id="SVGRoot"
   inkscape:version="0.92.3 (2405546, 2018-03-11)"
   sodipodi:docname="drawing.svg">
  <sodipodi:namedview
     id="base"
     pagecolor="#ffffff"
     bordercolor="#666666"
     borderopacity="1.0"
     inkscape:pageopacity="0.0"
     inkscape:pageshadow="2"
     inkscape:zoom="2"
     inkscape:cx="151.73263"
     inkscape:cy="131.5675"
     inkscape:document-units="px"
     inkscape:current-layer="layer1"
     showgrid="false"
     inkscape:window-width="1366"
     inkscape:window-height="768"
     inkscape:window-x="0"
     inkscape:window-y="0"
     inkscape:window-maximized="0"
     inkscape:grid-bbox="true"
     showguides="false" />
  <defs
     id="defs66" />
  <metadata
     id="metadata69">
    <rdf:RDF>
      <cc:Work
         rdf:about="">
        <dc:format>image/svg+xml</dc:format>
        <dc:type
           rdf:resource="http://purl.org/dc/dcmitype/StillImage" />
        <dc:title></dc:title>
      </cc:Work>
    </rdf:RDF>
  </metadata>
  <g
     id="layer1"
     inkscape:groupmode="layer"
     inkscape:label="Layer 1">
    <path
       style="fill:none;stroke:#000000;stroke-width:0;stroke-linecap:butt;stroke-linejoin:miter;stroke-opacity:1;stroke-miterlimit:4;stroke-dasharray:none"
       d="m 80.5,114 c 1.333333,0 2.744344,-0.44845 4,0 1.225873,0.43781 2.050355,1.60971 3,2.5 1.719536,1.61206 3.6376,3.07661 5,5 0.983897,1.38903 6.362413,13.17928 7,14.5 1.13415,2.34931 2.33333,4.66667 3.5,7 2.5,3.16667 5.54064,5.97315 7.5,9.5 2.25474,4.05853 3.24208,8.70287 5,13 1.24303,3.03853 2.96184,5.88552 4,9 0.80623,2.41868 0.27134,5.26608 1.5,7.5 2.52209,4.58562 7.15953,7.81907 9.5,12.5 0.96896,1.93793 -0.40917,4.37232 0,6.5 1.38348,7.19408 4.66892,5.94401 2.5,14 -0.56494,2.09835 -2.12393,3.81814 -3.5,5.5 -7.11501,8.69613 -6.48285,4.56596 -18,12.5 -3.60268,2.48185 -5.83859,7.15035 -10,8.5 -8.632635,2.79977 -18.195664,1.29892 -27,3.5 -4.05195,1.01299 -7.066669,4.59524 -11,6 -4.961481,1.77196 -10.356046,1.5 -15.5,1.5 -1.666667,0 -3.383096,0.40423 -5,0 -1.165966,-0.29149 -2.02802,-1.29311 -3,-2 -2.695787,-1.96057 -5.698414,-3.58881 -8,-6 -1.286626,-1.34789 -1.807954,-3.26989 -2.5,-5 -2.271422,-5.67855 -2.477284,-7.13074 -3.5,-12.5 -0.348663,-1.83048 -0.804931,-3.64685 -1,-5.5 -0.13958,-1.32601 0,-2.66667 0,-4 0,-1.5 0,-3 0,-4.5 0,-4.5 -0.187337,-9.0039 0,-13.5 0.04906,-1.17749 0.376628,-2.32796 0.5,-3.5 0.210095,-1.99591 0.124479,-4.02851 0.5,-6 0.29585,-1.55321 1.045663,-2.98554 1.5,-4.5 1.243331,-4.14444 2.349347,-8.32888 3.5,-12.5 0.688055,-2.4942 0.935076,-5.14195 2,-7.5 1.2943,-2.86595 3.632862,-5.16807 5,-8 4.433217,-9.18309 -0.297613,-3.85991 3.5,-13.5 1.311603,-3.32945 2.753597,-6.71446 5,-9.5 2.009788,-2.49214 5.346396,-3.63104 7.5,-6 1.253452,-1.3788 1.702308,-3.31598 2.5,-5 0.702694,-1.48346 0.74692,-3.4397 2,-4.5 1.173012,-0.99255 3.147076,-0.2715 4.5,-1 0.939628,-0.50595 1.136927,-1.87231 2,-2.5 1.026525,-0.74656 2.418994,-0.83477 3.5,-1.5 1.108611,-0.68222 1.785056,-2.03271 3,-2.5 1.088903,-0.41881 2.333333,0 3.5,0 1,0 2.089634,-0.4138 3,0 1.072877,0.48767 1.666667,1.66667 2.5,2.5 z"
       id="path114"
       inkscape:connector-curvature="0" />
    <path
       style="fill:#ffffff;stroke:#ffaaaa;stroke-width:7;stroke-linecap:butt;stroke-linejoin:miter;stroke-miterlimit:4;stroke-dasharray:none;stroke-opacity:1"
       d="M 148.55371,20.805002 C 116.75324,17.77786 92.92983,29.638389 68.432839,46.674411 23.313092,78.052188 13.912061,171.47316 58.41773,203.2175 c 10.803095,7.70546 25.288297,10.46096 37.91434,14.593 16.55297,5.41717 32.52151,12.6745 50.79091,9.28645 10.43928,-1.93594 21.58823,-5.55588 27.89923,-11.93972 9.21282,-9.31912 15.19436,-16.16573 24.32241,-25.86941 25.81904,-27.44722 40.12197,-83.97141 27.89923,-116.080682 -9.54659,-25.078994 -27.88528,-26.212205 -47.21408,-37.809136 -10.80669,-6.483818 -19.15928,-13.554757 -31.47606,-14.593 z"
       id="path937"
       inkscape:connector-curvature="0"
       sodipodi:nodetypes="csssscsssc" />
    <path
       style="fill:none;stroke:#ffaaaa;stroke-width:4;stroke-linecap:butt;stroke-linejoin:miter;stroke-opacity:1;stroke-miterlimit:4;stroke-dasharray:none"
       d="m 60.5,86.5 c 5.638875,23.3125 -11.604772,58.93237 0,77.5"
       id="path939"
       inkscape:connector-curvature="0" />
    <path
       style="fill:none;stroke:#ffaaaa;stroke-width:4;stroke-linecap:butt;stroke-linejoin:miter;stroke-opacity:1;stroke-miterlimit:4;stroke-dasharray:none"
       d="m 96.5,98.5 c 0,1 0,2 0,3"
       id="path941"
       inkscape:connector-curvature="0" />
    <path
       style="fill:none;stroke:#ffaaaa;stroke-width:4;stroke-linecap:butt;stroke-linejoin:miter;stroke-opacity:1;stroke-miterlimit:4;stroke-dasharray:none"
       d="M 97.5,128 C 97.4946,139.21035 97,150.27908 97,161.5"
       id="path943"
       inkscape:connector-curvature="0" />
    <path
       style="fill:none;stroke:#ffaaaa;stroke-width:4;stroke-linecap:butt;stroke-linejoin:miter;stroke-opacity:1;stroke-miterlimit:4;stroke-dasharray:none"
       d="m 115.5,127.5 c 0,13.16667 0,26.33333 0,39.5 0,0.66667 0,-1.33333 0,-2 0,-4.5 0,-9 0,-13.5 0,-10.76182 -8.95335,-36.5 10,-36.5 13.83029,0 16.98662,49.02408 12,58"
       id="path945"
       inkscape:connector-curvature="0" />
    <path
       style="fill:none;stroke:#ffaaaa;stroke-width:4;stroke-linecap:butt;stroke-linejoin:miter;stroke-opacity:1;stroke-miterlimit:4;stroke-dasharray:none"
       d="m 177.5,96 c -4.53965,24.99359 -10.67184,50.40571 -12.5,76"
       id="path947"
       inkscape:connector-curvature="0" />
    <path
       style="fill:none;stroke:#ffaaaa;stroke-width:4;stroke-linecap:butt;stroke-linejoin:miter;stroke-opacity:1;stroke-miterlimit:4;stroke-dasharray:none"
       d="m 185.5,134 c -14.69322,8.87579 -24.19826,18.76122 -6,31.5 3.95948,2.77163 9.22698,1.94784 13.5,5"
       id="path949"
       inkscape:connector-curvature="0" />
  </g>
</svg>
